<?xml version="1.0" encoding="UTF-8"?><svg xmlns="http://www.w3.org/2000/svg" xmlns:xlink="http://www.w3.org/1999/xlink" fill-opacity="1" color-rendering="auto" color-interpolation="auto" text-rendering="auto" stroke="black" stroke-linecap="square" width="994" stroke-miterlimit="10" shape-rendering="auto" stroke-opacity="1" fill="black" stroke-dasharray="none" font-weight="normal" stroke-width="1" height="504" font-family="'Dialog'" font-style="normal" stroke-linejoin="miter" font-size="12px" stroke-dashoffset="0" image-rendering="auto">
  <!--Generated by ySVG 2.6-->
  <defs id="genericDefs"/>
  <g>
    <defs id="defs1">
      <clipPath clipPathUnits="userSpaceOnUse" id="clipPath1">
        <path d="M0 0 L994 0 L994 504 L0 504 L0 0 Z"/>
      </clipPath>
      <clipPath clipPathUnits="userSpaceOnUse" id="clipPath2">
        <path d="M721 449 L1715 449 L1715 953 L721 953 L721 449 Z"/>
      </clipPath>
      <clipPath clipPathUnits="userSpaceOnUse" id="clipPath3">
        <path d="M409.372 -76.4538 L436.5321 917.1751 L-67.2797 930.9464 L-94.4398 -62.6825 L409.372 -76.4538 Z"/>
      </clipPath>
      <clipPath clipPathUnits="userSpaceOnUse" id="clipPath4">
        <path d="M238.6151 -441.7921 L538.1605 505.9993 L57.5902 657.8815 L-241.9552 -289.9099 L238.6151 -441.7921 Z"/>
      </clipPath>
      <clipPath clipPathUnits="userSpaceOnUse" id="clipPath5">
        <path d="M-448.7872 284.635 L-89.1235 -642.0138 L380.7266 -459.6491 L21.0629 466.9997 L-448.7872 284.635 Z"/>
      </clipPath>
      <clipPath clipPathUnits="userSpaceOnUse" id="clipPath6">
        <path d="M400.2741 -15.0263 L400.2741 978.9738 L-103.7259 978.9738 L-103.7259 -15.0263 L400.2741 -15.0263 Z"/>
      </clipPath>
    </defs>
    <g fill="white" text-rendering="geometricPrecision" shape-rendering="geometricPrecision" transform="translate(-721,-449)" stroke="white">
      <rect x="721" width="994" height="504" y="449" clip-path="url(#clipPath2)" stroke="none"/>
    </g>
    <g fill="rgb(255,204,0)" text-rendering="geometricPrecision" shape-rendering="geometricPrecision" transform="matrix(1,0,0,1,-721,-449)" stroke="rgb(255,204,0)">
      <rect x="1494.4416" width="205.1774" height="30" y="609.1662" clip-path="url(#clipPath2)" stroke="none"/>
    </g>
    <g text-rendering="geometricPrecision" stroke-miterlimit="1.45" shape-rendering="geometricPrecision" transform="matrix(1,0,0,1,-721,-449)" stroke-linecap="butt">
      <rect fill="none" x="1494.4416" width="205.1774" height="30" y="609.1662" clip-path="url(#clipPath2)"/>
      <text x="1498.6398" xml:space="preserve" y="621.5295" clip-path="url(#clipPath2)" font-family="sans-serif" stroke="none">&lt;&lt;covr:ValueExperience-universal&gt;&gt;</text>
      <text x="1546.672" xml:space="preserve" y="636.2307" clip-path="url(#clipPath2)" font-family="sans-serif" stroke="none">Quality Experience</text>
    </g>
    <g fill="rgb(255,204,0)" text-rendering="geometricPrecision" shape-rendering="geometricPrecision" transform="matrix(1,0,0,1,-721,-449)" stroke="rgb(255,204,0)">
      <rect x="978.3818" width="162.5" height="30" y="609.1662" clip-path="url(#clipPath2)" stroke="none"/>
    </g>
    <g text-rendering="geometricPrecision" stroke-miterlimit="1.45" shape-rendering="geometricPrecision" transform="matrix(1,0,0,1,-721,-449)" stroke-linecap="butt">
      <rect fill="none" x="978.3818" width="162.5" height="30" y="609.1662" clip-path="url(#clipPath2)"/>
      <text x="993.5878" xml:space="preserve" y="621.5295" clip-path="url(#clipPath2)" font-family="sans-serif" stroke="none">&lt;&lt;ufo:action-universal&gt;&gt;</text>
      <text x="985.2646" xml:space="preserve" y="636.2307" clip-path="url(#clipPath2)" font-family="sans-serif" stroke="none">Experience Control Process</text>
    </g>
    <g fill="rgb(255,204,0)" text-rendering="geometricPrecision" shape-rendering="geometricPrecision" transform="matrix(1,0,0,1,-721,-449)" stroke="rgb(255,204,0)">
      <rect x="1293.1501" width="74" height="30" y="609.1662" clip-path="url(#clipPath2)" stroke="none"/>
    </g>
    <g text-rendering="geometricPrecision" stroke-miterlimit="1.45" shape-rendering="geometricPrecision" transform="matrix(1,0,0,1,-721,-449)" stroke-linecap="butt">
      <rect fill="none" x="1293.1501" width="74" height="30" y="609.1662" clip-path="url(#clipPath2)"/>
      <text x="1296.1305" xml:space="preserve" y="628.8801" clip-path="url(#clipPath2)" font-family="sans-serif" stroke="none">Organization</text>
    </g>
    <g fill="rgb(255,204,0)" text-rendering="geometricPrecision" shape-rendering="geometricPrecision" transform="matrix(1,0,0,1,-721,-449)" stroke="rgb(255,204,0)">
      <rect x="1409.4416" width="85" height="30" y="664.0788" clip-path="url(#clipPath2)" stroke="none"/>
    </g>
    <g text-rendering="geometricPrecision" stroke-miterlimit="1.45" shape-rendering="geometricPrecision" transform="matrix(1,0,0,1,-721,-449)" stroke-linecap="butt">
      <rect fill="none" x="1409.4416" width="85" height="30" y="664.0788" clip-path="url(#clipPath2)"/>
      <text x="1413.2493" xml:space="preserve" y="683.7927" clip-path="url(#clipPath2)" font-family="sans-serif" stroke="none">Value Subject </text>
    </g>
    <g fill="rgb(255,204,0)" text-rendering="geometricPrecision" shape-rendering="geometricPrecision" transform="matrix(1,0,0,1,-721,-449)" stroke="rgb(255,204,0)">
      <rect x="925.8818" width="52.5" height="30" y="664.0788" clip-path="url(#clipPath2)" stroke="none"/>
    </g>
    <g text-rendering="geometricPrecision" stroke-miterlimit="1.45" shape-rendering="geometricPrecision" transform="matrix(1,0,0,1,-721,-449)" stroke-linecap="butt">
      <rect fill="none" x="925.8818" width="52.5" height="30" y="664.0788" clip-path="url(#clipPath2)"/>
      <text x="927.1093" xml:space="preserve" y="683.7927" clip-path="url(#clipPath2)" font-family="sans-serif" stroke="none">ufo:agent</text>
    </g>
    <g fill="rgb(255,204,0)" text-rendering="geometricPrecision" shape-rendering="geometricPrecision" transform="matrix(1,0,0,1,-721,-449)" stroke="rgb(255,204,0)">
      <rect x="774.798" width="145.3743" height="30" y="883.0292" clip-path="url(#clipPath2)" stroke="none"/>
    </g>
    <g text-rendering="geometricPrecision" stroke-miterlimit="1.45" shape-rendering="geometricPrecision" transform="matrix(1,0,0,1,-721,-449)" stroke-linecap="butt">
      <rect fill="none" x="774.798" width="145.3743" height="30" y="883.0292" clip-path="url(#clipPath2)"/>
      <text x="781.4412" xml:space="preserve" y="895.3925" clip-path="url(#clipPath2)" font-family="sans-serif" stroke="none">&lt;&lt;ufo:action-universal&gt;&gt;</text>
      <text x="790.119" xml:space="preserve" y="910.0936" clip-path="url(#clipPath2)" font-family="sans-serif" stroke="none">Situation Observation</text>
    </g>
    <g fill="rgb(255,204,0)" text-rendering="geometricPrecision" shape-rendering="geometricPrecision" transform="matrix(1,0,0,1,-721,-449)" stroke="rgb(255,204,0)">
      <rect x="790.9226" width="113.125" height="30" y="644.6037" clip-path="url(#clipPath2)" stroke="none"/>
    </g>
    <g text-rendering="geometricPrecision" stroke-miterlimit="1.45" shape-rendering="geometricPrecision" transform="matrix(1,0,0,1,-721,-449)" stroke-linecap="butt">
      <rect fill="none" x="790.9226" width="113.125" height="30" y="644.6037" clip-path="url(#clipPath2)"/>
      <text x="794.4666" xml:space="preserve" y="664.3175" clip-path="url(#clipPath2)" font-family="sans-serif" stroke="none">Quality Assessment</text>
    </g>
    <g fill="rgb(255,204,0)" text-rendering="geometricPrecision" shape-rendering="geometricPrecision" transform="matrix(1,0,0,1,-721,-449)" stroke="rgb(255,204,0)">
      <rect x="793.1101" width="108.75" height="30" y="724.0788" clip-path="url(#clipPath2)" stroke="none"/>
    </g>
    <g text-rendering="geometricPrecision" stroke-miterlimit="1.45" shape-rendering="geometricPrecision" transform="matrix(1,0,0,1,-721,-449)" stroke-linecap="butt">
      <rect fill="none" x="793.1101" width="108.75" height="30" y="724.0788" clip-path="url(#clipPath2)"/>
      <text x="794.449" xml:space="preserve" y="743.7927" clip-path="url(#clipPath2)" font-family="sans-serif" stroke="none">Situation Evaluation</text>
    </g>
    <g fill="rgb(255,204,0)" text-rendering="geometricPrecision" shape-rendering="geometricPrecision" transform="matrix(1,0,0,1,-721,-449)" stroke="rgb(255,204,0)">
      <rect x="1053.2309" width="133.3378" height="30" y="724.0788" clip-path="url(#clipPath2)" stroke="none"/>
    </g>
    <g text-rendering="geometricPrecision" stroke-miterlimit="1.45" shape-rendering="geometricPrecision" transform="matrix(1,0,0,1,-721,-449)" stroke-linecap="butt">
      <rect fill="none" x="1053.2309" width="133.3378" height="30" y="724.0788" clip-path="url(#clipPath2)"/>
      <text x="1058.5229" xml:space="preserve" y="736.4421" clip-path="url(#clipPath2)" font-family="sans-serif" stroke="none">&lt;&lt;ufo:goal-universal&gt;&gt;</text>
      <text x="1085.5493" xml:space="preserve" y="751.1433" clip-path="url(#clipPath2)" font-family="sans-serif" stroke="none">Requirement</text>
    </g>
    <g fill="rgb(255,204,0)" text-rendering="geometricPrecision" shape-rendering="geometricPrecision" transform="matrix(1,0,0,1,-721,-449)" stroke="rgb(255,204,0)">
      <rect x="1046.8099" width="145.3743" height="30" y="883.0292" clip-path="url(#clipPath2)" stroke="none"/>
    </g>
    <g text-rendering="geometricPrecision" stroke-miterlimit="1.45" shape-rendering="geometricPrecision" transform="matrix(1,0,0,1,-721,-449)" stroke-linecap="butt">
      <rect fill="none" x="1046.8099" width="145.3743" height="30" y="883.0292" clip-path="url(#clipPath2)"/>
      <text x="1047.1162" xml:space="preserve" y="895.3925" clip-path="url(#clipPath2)" font-family="sans-serif" stroke="none">&lt;&lt;ufo:situation-universal&gt;&gt;</text>
      <text x="1096.1475" xml:space="preserve" y="910.0936" clip-path="url(#clipPath2)" font-family="sans-serif" stroke="none">Situatoin</text>
    </g>
    <g fill="rgb(255,204,0)" text-rendering="geometricPrecision" shape-rendering="geometricPrecision" transform="matrix(1,0,0,1,-721,-449)" stroke="rgb(255,204,0)">
      <rect x="1043.2441" width="77" height="30" y="820.2938" clip-path="url(#clipPath2)" stroke="none"/>
    </g>
    <g text-rendering="geometricPrecision" stroke-miterlimit="1.45" shape-rendering="geometricPrecision" transform="matrix(1,0,0,1,-721,-449)" stroke-linecap="butt">
      <rect fill="none" x="1043.2441" width="77" height="30" y="820.2938" clip-path="url(#clipPath2)"/>
      <text x="1058.3945" xml:space="preserve" y="832.657" clip-path="url(#clipPath2)" font-family="sans-serif" stroke="none">Situation</text>
      <text x="1045.0527" xml:space="preserve" y="847.3582" clip-path="url(#clipPath2)" font-family="sans-serif" stroke="none">Unacceptable</text>
    </g>
    <g fill="rgb(255,204,0)" text-rendering="geometricPrecision" shape-rendering="geometricPrecision" transform="matrix(1,0,0,1,-721,-449)" stroke="rgb(255,204,0)">
      <rect x="1120.2441" width="74" height="30" y="820.2938" clip-path="url(#clipPath2)" stroke="none"/>
    </g>
    <g text-rendering="geometricPrecision" stroke-miterlimit="1.45" shape-rendering="geometricPrecision" transform="matrix(1,0,0,1,-721,-449)" stroke-linecap="butt">
      <rect fill="none" x="1120.2441" width="74" height="30" y="820.2938" clip-path="url(#clipPath2)"/>
      <text x="1132.2275" xml:space="preserve" y="832.657" clip-path="url(#clipPath2)" font-family="sans-serif" stroke="none">Situatoin </text>
      <text x="1127.5576" xml:space="preserve" y="847.3582" clip-path="url(#clipPath2)" font-family="sans-serif" stroke="none">Acceptable</text>
    </g>
    <g fill="rgb(255,204,0)" text-rendering="geometricPrecision" shape-rendering="geometricPrecision" transform="matrix(1,0,0,1,-721,-449)" stroke="rgb(255,204,0)">
      <rect x="1504.5494" width="184.9618" height="30" y="883.0292" clip-path="url(#clipPath2)" stroke="none"/>
    </g>
    <g text-rendering="geometricPrecision" stroke-miterlimit="1.45" shape-rendering="geometricPrecision" transform="matrix(1,0,0,1,-721,-449)" stroke-linecap="butt">
      <rect fill="none" x="1504.5494" width="184.9618" height="30" y="883.0292" clip-path="url(#clipPath2)"/>
      <text x="1513.3146" xml:space="preserve" y="895.3925" clip-path="url(#clipPath2)" font-family="sans-serif" stroke="none">&lt;&lt;covr:ValueEvent-universal&gt;&gt;</text>
      <text x="1561.3468" xml:space="preserve" y="910.0936" clip-path="url(#clipPath2)" font-family="sans-serif" stroke="none">Quality Event</text>
    </g>
    <g fill="rgb(255,204,0)" text-rendering="geometricPrecision" shape-rendering="geometricPrecision" transform="matrix(1,0,0,1,-721,-449)" stroke="rgb(255,204,0)">
      <rect x="1376.2603" width="152" height="30" y="724.0788" clip-path="url(#clipPath2)" stroke="none"/>
    </g>
    <g text-rendering="geometricPrecision" stroke-miterlimit="1.45" shape-rendering="geometricPrecision" transform="matrix(1,0,0,1,-721,-449)" stroke-linecap="butt">
      <rect fill="none" x="1376.2603" width="152" height="30" y="724.0788" clip-path="url(#clipPath2)"/>
      <text x="1379.5426" xml:space="preserve" y="736.4421" clip-path="url(#clipPath2)" font-family="sans-serif" stroke="none">&lt;&lt;ufo:intention-universal&gt;&gt;</text>
      <text x="1420.9069" xml:space="preserve" y="751.1433" clip-path="url(#clipPath2)" font-family="sans-serif" stroke="none">Expectation</text>
    </g>
    <g fill="rgb(255,204,0)" text-rendering="geometricPrecision" shape-rendering="geometricPrecision" transform="matrix(1,0,0,1,-721,-449)" stroke="rgb(255,204,0)">
      <rect x="779.4899" width="135.9904" height="30" y="565.1285" clip-path="url(#clipPath2)" stroke="none"/>
    </g>
    <g text-rendering="geometricPrecision" stroke-miterlimit="1.45" shape-rendering="geometricPrecision" transform="matrix(1,0,0,1,-721,-449)" stroke-linecap="butt">
      <rect fill="none" x="779.4899" width="135.9904" height="30" y="565.1285" clip-path="url(#clipPath2)"/>
      <text x="782.7742" xml:space="preserve" y="577.4918" clip-path="url(#clipPath2)" font-family="sans-serif" stroke="none">&lt;&lt;ufo:action-universa&gt;&gt;</text>
      <text x="801.8026" xml:space="preserve" y="592.1929" clip-path="url(#clipPath2)" font-family="sans-serif" stroke="none">Corrective Action</text>
    </g>
    <g fill="rgb(255,204,0)" text-rendering="geometricPrecision" shape-rendering="geometricPrecision" transform="matrix(1,0,0,1,-721,-449)" stroke="rgb(255,204,0)">
      <rect x="965.4126" width="135.9904" height="30" y="489.1662" clip-path="url(#clipPath2)" stroke="none"/>
    </g>
    <g text-rendering="geometricPrecision" stroke-miterlimit="1.45" shape-rendering="geometricPrecision" transform="matrix(1,0,0,1,-721,-449)" stroke-linecap="butt">
      <rect fill="none" x="965.4126" width="135.9904" height="30" y="489.1662" clip-path="url(#clipPath2)"/>
      <text x="967.3639" xml:space="preserve" y="501.5295" clip-path="url(#clipPath2)" font-family="sans-serif" stroke="none">&lt;&lt;ufo:action-universal&gt;&gt;</text>
      <text x="990.7223" xml:space="preserve" y="516.2307" clip-path="url(#clipPath2)" font-family="sans-serif" stroke="none">Safety Analysis </text>
    </g>
    <g fill="rgb(255,204,0)" text-rendering="geometricPrecision" shape-rendering="geometricPrecision" transform="matrix(1,0,0,1,-721,-449)" stroke="rgb(255,204,0)">
      <rect x="1244.9502" width="170.3998" height="30" y="489.1662" clip-path="url(#clipPath2)" stroke="none"/>
    </g>
    <g text-rendering="geometricPrecision" stroke-miterlimit="1.45" shape-rendering="geometricPrecision" transform="matrix(1,0,0,1,-721,-449)" stroke-linecap="butt">
      <rect fill="none" x="1244.9502" width="170.3998" height="30" y="489.1662" clip-path="url(#clipPath2)"/>
      <text x="1248.7692" xml:space="preserve" y="501.5295" clip-path="url(#clipPath2)" font-family="sans-serif" stroke="none">&lt;&lt;ufo:normative-description&gt;&gt;</text>
      <text x="1254.7809" xml:space="preserve" y="516.2307" clip-path="url(#clipPath2)" font-family="sans-serif" stroke="none">Organization Process Model</text>
    </g>
    <g fill="rgb(255,204,0)" text-rendering="geometricPrecision" shape-rendering="geometricPrecision" transform="matrix(1,0,0,1,-721,-449)" stroke="rgb(255,204,0)">
      <rect x="1262.1549" width="135.9904" height="30" y="549.1662" clip-path="url(#clipPath2)" stroke="none"/>
    </g>
    <g text-rendering="geometricPrecision" stroke-miterlimit="1.45" shape-rendering="geometricPrecision" transform="matrix(1,0,0,1,-721,-449)" stroke-linecap="butt">
      <rect fill="none" x="1262.1549" width="135.9904" height="30" y="549.1662" clip-path="url(#clipPath2)"/>
      <text x="1268.1198" xml:space="preserve" y="568.8801" clip-path="url(#clipPath2)" font-family="sans-serif" stroke="none">Organizational Process</text>
      <path fill="none" d="M1367.15 624.1662 L1486.4417 624.1662" clip-path="url(#clipPath2)"/>
      <path d="M1494.4417 624.1662 L1482.4417 619.1662 L1485.4417 624.1662 L1482.4417 629.1662 Z" clip-path="url(#clipPath2)" stroke="none"/>
      <text x="1384.0054" xml:space="preserve" y="616.7356" clip-path="url(#clipPath2)" font-family="sans-serif" stroke="none">ufo:participates in</text>
      <path fill="none" d="M1293.15 624.1662 L1148.8818 624.1662" clip-path="url(#clipPath2)"/>
      <path d="M1140.8818 624.1662 L1152.8818 629.1662 L1149.8818 624.1662 L1152.8818 619.1662 Z" clip-path="url(#clipPath2)" stroke="none"/>
      <text x="1197.2441" xml:space="preserve" y="614.5275" clip-path="url(#clipPath2)" font-family="sans-serif" stroke="none">ufo:performs</text>
      <path fill="none" d="M1494.4417 679.0789 L1614.7937 679.0789 L1614.7937 647.186" clip-path="url(#clipPath2)"/>
      <path d="M1614.7937 639.186 L1609.7937 651.186 L1614.7937 648.186 L1619.7937 651.186 Z" clip-path="url(#clipPath2)" stroke="none"/>
      <text x="1500.5913" xml:space="preserve" y="695.5089" clip-path="url(#clipPath2)" font-family="sans-serif" stroke="none">covr:has-experience</text>
      <path fill="none" d="M1330.15 639.1662 L1330.15 679.0789 L993.3818 679.0789" clip-path="url(#clipPath2)"/>
      <path fill="white" d="M978.3818 679.0789 L994.3818 685.0789 L994.3818 673.0789 Z" clip-path="url(#clipPath2)" stroke="none"/>
      <path fill="none" d="M978.3818 679.0789 L994.3818 685.0789 L994.3818 673.0789 Z" clip-path="url(#clipPath2)"/>
      <path fill="none" d="M1409.4417 679.0789 L993.3818 679.0789" clip-path="url(#clipPath2)"/>
      <path fill="white" d="M978.3818 679.0789 L994.3818 685.0789 L994.3818 673.0789 Z" clip-path="url(#clipPath2)" stroke="none"/>
      <path fill="none" d="M978.3818 679.0789 L994.3818 685.0789 L994.3818 673.0789 Z" clip-path="url(#clipPath2)"/>
      <path fill="none" d="M952.1318 694.1002 L952.1318 849.6107 L887.165 879.6699" clip-path="url(#clipPath2)"/>
      <path d="M879.9045 883.0292 L892.8949 882.528 L888.0726 879.2499 L888.6957 873.4524 Z" clip-path="url(#clipPath2)" stroke="none"/>
      <text x="922.4174" xml:space="preserve" y="868.1508" clip-path="url(#clipPath2)" font-family="sans-serif" stroke="none">ufo:performs</text>
      <path fill="none" d="M847.4852 644.6036 L847.4852 624.1662 L971.3818 624.1662" clip-path="url(#clipPath2)"/>
      <path fill="white" d="M978.3818 624.1662 L971.3818 629.1662 L964.3818 624.1662 L971.3818 619.1662 Z" clip-path="url(#clipPath2)" stroke="none"/>
      <path fill="none" d="M978.3818 624.1662 L971.3818 629.1662 L964.3818 624.1662 L971.3818 619.1662 Z" clip-path="url(#clipPath2)"/>
      <path fill="none" d="M847.4852 674.6036 L847.4852 709.0789" clip-path="url(#clipPath2)"/>
      <path fill="white" d="M847.4852 724.0789 L853.4852 708.0789 L841.4852 708.0789 Z" clip-path="url(#clipPath2)" stroke="none"/>
      <path fill="none" d="M847.4852 724.0789 L853.4852 708.0789 L841.4852 708.0789 Z" clip-path="url(#clipPath2)"/>
      <path fill="none" d="M809.9756 754.0434 L809.9756 875.021" clip-path="url(#clipPath2)"/>
      <path d="M809.9756 883.021 L814.9756 871.021 L809.9756 874.021 L804.9756 871.021 Z" clip-path="url(#clipPath2)" stroke="none"/>
    </g>
    <g text-rendering="geometricPrecision" stroke-miterlimit="1.45" shape-rendering="geometricPrecision" font-family="sans-serif" transform="matrix(0.0273,-0.9996,0.9996,0.0273,65.2395,411.3082)" stroke-linecap="butt">
      <text x="2" xml:space="preserve" y="14.0645" clip-path="url(#clipPath3)" stroke="none">is evaluation of</text>
    </g>
    <g text-rendering="geometricPrecision" stroke-miterlimit="1.45" shape-rendering="geometricPrecision" transform="matrix(1,0,0,1,-721,-449)" stroke-linecap="butt">
      <path fill="none" d="M847.4852 754.0789 L847.4852 868.0292" clip-path="url(#clipPath2)"/>
      <path fill="white" d="M847.4852 883.0292 L853.4852 867.0292 L841.4852 867.0292 Z" clip-path="url(#clipPath2)" stroke="none"/>
      <path fill="none" d="M847.4852 883.0292 L853.4852 867.0292 L841.4852 867.0292 Z" clip-path="url(#clipPath2)"/>
      <path fill="none" d="M901.8602 739.0789 L947.1318 739.0789 M957.1318 739.0789 L1045.231 739.0789" clip-path="url(#clipPath2)"/>
      <path d="M1053.231 739.0789 L1041.231 734.0789 L1044.231 739.0789 L1041.231 744.0789 Z" clip-path="url(#clipPath2)" stroke="none"/>
      <text x="976.4834" xml:space="preserve" y="731.3096" clip-path="url(#clipPath2)" font-family="sans-serif" stroke="none">based on</text>
      <path fill="none" d="M920.1723 898.0292 L1038.8099 898.0292" clip-path="url(#clipPath2)"/>
      <path d="M1046.8099 898.0292 L1034.8099 893.0292 L1037.8099 898.0292 L1034.8099 903.0292 Z" clip-path="url(#clipPath2)" stroke="none"/>
      <text x="938.4595" xml:space="preserve" y="912.1561" clip-path="url(#clipPath2)" font-family="sans-serif" stroke="none">is observatoin of</text>
      <path fill="none" d="M1171.4399 913.049 L1171.4399 937.2784 L1136.0016 937.2784 L1136.0016 920.0159" clip-path="url(#clipPath2)"/>
      <path fill="white" d="M1136.0016 913.0159 L1141.0016 920.0159 L1136.0016 927.0159 L1131.0016 920.0159 Z" clip-path="url(#clipPath2)" stroke="none"/>
      <path fill="none" d="M1136.0016 913.0159 L1141.0016 920.0159 L1136.0016 927.0159 L1131.0016 920.0159 Z" clip-path="url(#clipPath2)"/>
      <path fill="none" d="M1081.7441 850.2938 L1081.7441 859.8091 L1119.5089 859.8091 L1119.5063 868.0292" clip-path="url(#clipPath2)"/>
      <path fill="white" d="M1119.5017 883.0292 L1125.5067 867.031 L1113.5067 867.0273 Z" clip-path="url(#clipPath2)" stroke="none"/>
      <path fill="none" d="M1119.5017 883.0292 L1125.5067 867.031 L1113.5067 867.0273 Z" clip-path="url(#clipPath2)"/>
      <path fill="none" d="M1086.4847 820.2938 L1104.9928 761.7325" clip-path="url(#clipPath2)"/>
      <path d="M1107.4037 754.1044 L1099.0198 764.0397 L1104.6914 762.686 L1108.5549 767.0533 Z" clip-path="url(#clipPath2)" stroke="none"/>
    </g>
    <g text-rendering="geometricPrecision" stroke-miterlimit="1.45" shape-rendering="geometricPrecision" font-family="sans-serif" transform="matrix(0.3014,-0.9535,0.9535,0.3014,349.3468,360.6581)" stroke-linecap="butt">
      <text x="2" xml:space="preserve" y="14.0645" clip-path="url(#clipPath4)" stroke="none">violates</text>
    </g>
    <g text-rendering="geometricPrecision" stroke-miterlimit="1.45" shape-rendering="geometricPrecision" transform="matrix(1,0,0,1,-721,-449)" stroke-linecap="butt">
      <path fill="none" d="M1157.2441 850.2938 L1157.2441 859.8091 L1119.5089 859.8091 L1119.5063 868.0292" clip-path="url(#clipPath2)"/>
      <path fill="white" d="M1119.5017 883.0292 L1125.5067 867.031 L1113.5067 867.0273 Z" clip-path="url(#clipPath2)" stroke="none"/>
      <path fill="none" d="M1119.5017 883.0292 L1125.5067 867.031 L1113.5067 867.0273 Z" clip-path="url(#clipPath2)"/>
      <path fill="none" d="M1151.4221 820.2938 L1128.6166 761.5367" clip-path="url(#clipPath2)"/>
      <path d="M1125.7218 754.0789 L1125.4028 767.075 L1128.9784 762.469 L1134.7251 763.4565 Z" clip-path="url(#clipPath2)" stroke="none"/>
    </g>
    <g text-rendering="geometricPrecision" stroke-miterlimit="1.45" shape-rendering="geometricPrecision" font-family="sans-serif" transform="matrix(0.3618,0.9322,-0.9322,0.3618,427.7356,315.3875)" stroke-linecap="butt">
      <text x="2" xml:space="preserve" y="14.0645" clip-path="url(#clipPath5)" stroke="none">satisfies</text>
    </g>
    <g text-rendering="geometricPrecision" stroke-miterlimit="1.45" shape-rendering="geometricPrecision" transform="matrix(1,0,0,1,-721,-449)" stroke-linecap="butt">
      <path fill="none" d="M1192.2104 889.413 L1496.5221 889.413" clip-path="url(#clipPath2)"/>
      <path d="M1504.5221 889.413 L1492.5221 884.413 L1495.5221 889.413 L1492.5221 894.413 Z" clip-path="url(#clipPath2)" stroke="none"/>
      <text x="1316.8448" xml:space="preserve" y="882.0677" clip-path="url(#clipPath2)" font-family="sans-serif" stroke="none">ufo:triggers</text>
      <path fill="none" d="M1646.87 883.0416 L1646.87 646.2074" clip-path="url(#clipPath2)"/>
      <path fill="white" d="M1646.87 639.2074 L1651.87 646.2074 L1646.87 653.2074 L1641.87 646.2074 Z" clip-path="url(#clipPath2)" stroke="none"/>
      <path fill="none" d="M1646.87 639.2074 L1651.87 646.2074 L1646.87 653.2074 L1641.87 646.2074 Z" clip-path="url(#clipPath2)"/>
      <path fill="none" d="M1504.5935 908.5178 L1200.2202 908.5178" clip-path="url(#clipPath2)"/>
      <path d="M1192.2202 908.5178 L1204.2202 913.5178 L1201.2202 908.5178 L1204.2202 903.5178 Z" clip-path="url(#clipPath2)" stroke="none"/>
      <text x="1308.3339" xml:space="preserve" y="921.3715" clip-path="url(#clipPath2)" font-family="sans-serif" stroke="none">ufo:brings-about</text>
      <path fill="none" d="M1186.5687 739.0789 L1368.2604 739.0789" clip-path="url(#clipPath2)"/>
      <path d="M1376.2604 739.0789 L1364.2604 734.0789 L1367.2604 739.0789 L1364.2604 744.0789 Z" clip-path="url(#clipPath2)" stroke="none"/>
      <text x="1203.9863" xml:space="preserve" y="751.3297" clip-path="url(#clipPath2)" font-family="sans-serif" stroke="none">ufo:is-propositional-content-of</text>
      <path fill="none" d="M1150.8997 883.0292 L1413.639 757.527" clip-path="url(#clipPath2)"/>
      <path d="M1420.8578 754.0789 L1407.8746 754.7393 L1412.7367 757.958 L1412.1847 763.7628 Z" clip-path="url(#clipPath2)" stroke="none"/>
      <text x="1299.6494" xml:space="preserve" y="833.8519" clip-path="url(#clipPath2)" font-family="sans-serif" stroke="none">covr:impacts</text>
      <path fill="none" d="M1452.1807 724.0789 L1452.0638 702.0787" clip-path="url(#clipPath2)"/>
      <path d="M1452.0214 694.0789 L1447.0852 706.1052 L1452.0692 703.0787 L1457.085 706.0521 Z" clip-path="url(#clipPath2)" stroke="none"/>
      <text x="1371.851" xml:space="preserve" y="713.1433" clip-path="url(#clipPath2)" font-family="sans-serif" stroke="none">ufo:inheres-in</text>
      <path fill="none" d="M774.798 898.0292 L754.798 898.0292 L754.798 580.1285 L771.4899 580.1285" clip-path="url(#clipPath2)"/>
      <path d="M779.4899 580.1285 L767.4899 575.1285 L770.4899 580.1285 L767.4899 585.1285 Z" clip-path="url(#clipPath2)" stroke="none"/>
    </g>
    <g text-rendering="geometricPrecision" stroke-miterlimit="1.45" shape-rendering="geometricPrecision" font-family="sans-serif" transform="matrix(0,-1,1,0,15.0263,400.2741)" stroke-linecap="butt">
      <text x="2" xml:space="preserve" y="14.0645" clip-path="url(#clipPath6)" stroke="none">causes</text>
    </g>
    <g text-rendering="geometricPrecision" stroke-miterlimit="1.45" shape-rendering="geometricPrecision" transform="matrix(1,0,0,1,-721,-449)" stroke-linecap="butt">
      <path fill="none" d="M952.1318 664.0789 L952.1318 629.1662 M952.1318 619.1662 L952.1318 580.1285 L923.4803 580.1285" clip-path="url(#clipPath2)"/>
      <path d="M915.4803 580.1285 L927.4803 585.1285 L924.4803 580.1285 L927.4803 575.1285 Z" clip-path="url(#clipPath2)" stroke="none"/>
      <path fill="none" d="M847.4852 595.1285 L847.4852 624.1662 L947.1318 624.1662 M957.1318 624.1662 L971.4124 624.1662" clip-path="url(#clipPath2)"/>
      <path fill="white" d="M978.4124 624.1662 L971.4124 629.1662 L964.4124 624.1662 L971.4124 619.1662 Z" clip-path="url(#clipPath2)" stroke="none"/>
      <path fill="none" d="M978.4124 624.1662 L971.4124 629.1662 L964.4124 624.1662 L971.4124 619.1662 Z" clip-path="url(#clipPath2)"/>
      <path fill="none" d="M1033.4078 519.1662 L1033.4078 602.1407" clip-path="url(#clipPath2)"/>
      <path fill="white" d="M1033.4078 609.1407 L1028.4078 602.1407 L1033.4078 595.1407 L1038.4078 602.1407 Z" clip-path="url(#clipPath2)" stroke="none"/>
      <path fill="none" d="M1033.4078 609.1407 L1028.4078 602.1407 L1033.4078 595.1407 L1038.4078 602.1407 Z" clip-path="url(#clipPath2)"/>
      <path fill="none" d="M1101.403 504.1662 L1173.6974 504.1662 L1173.6974 619.1662 M1173.6974 629.1662 L1173.6974 674.0789 M1173.6974 684.0789 L1173.6974 716.0664" clip-path="url(#clipPath2)"/>
      <path d="M1173.6974 724.0664 L1178.6974 712.0664 L1173.6974 715.0664 L1168.6974 712.0664 Z" clip-path="url(#clipPath2)" stroke="none"/>
      <path fill="none" d="M1101.403 504.1662 L1236.9502 504.1662" clip-path="url(#clipPath2)"/>
      <path d="M1244.9502 504.1662 L1232.9502 499.1662 L1235.9502 504.1662 L1232.9502 509.1662 Z" clip-path="url(#clipPath2)" stroke="none"/>
      <text x="1153.5009" xml:space="preserve" y="478.8801" clip-path="url(#clipPath2)" font-family="sans-serif" stroke="none">creates</text>
      <path fill="none" d="M1330.15 609.1662 L1330.15 587.1662" clip-path="url(#clipPath2)"/>
      <path d="M1330.15 579.1662 L1325.15 591.1662 L1330.15 588.1662 L1335.15 591.1662 Z" clip-path="url(#clipPath2)" stroke="none"/>
      <text x="1239.226" xml:space="preserve" y="597.2307" clip-path="url(#clipPath2)" font-family="sans-serif" stroke="none">ufo:performs</text>
      <path fill="none" d="M1059.6318 609.1662 L1059.6318 564.1662 L1168.6974 564.1662 M1178.6974 564.1662 L1247.1549 564.1662" clip-path="url(#clipPath2)"/>
      <path fill="white" d="M1262.1549 564.1662 L1246.1549 558.1662 L1246.1549 570.1662 Z" clip-path="url(#clipPath2)" stroke="none"/>
      <path fill="none" d="M1262.1549 564.1662 L1246.1549 558.1662 L1246.1549 570.1662 Z" clip-path="url(#clipPath2)"/>
      <path fill="none" d="M1330.15 519.1662 L1330.15 541.1662" clip-path="url(#clipPath2)"/>
      <path d="M1330.15 549.1662 L1335.15 537.1662 L1330.15 540.1662 L1325.15 537.1662 Z" clip-path="url(#clipPath2)" stroke="none"/>
      <text x="1274.4713" xml:space="preserve" y="538.8801" clip-path="url(#clipPath2)" font-family="sans-serif" stroke="none">describes</text>
    </g>
  </g>
</svg>
